PathFileType	4	(X/Y/Z)	Patient4_TMGait_0pt3_02_right_13.trc.trc
DataRate	CameraRate	NumFrames	NumMarkers	Units	OrigDataRate	OrigDataStartFrame	OrigNumFrames
53.231939163498	53.231939163498	5	33	mm	53.231939163498	36	       141
Frame#	Time	Sacral			L.Shoulder			Chest			R.Shoulder			Neck			R.ASIS			L.ASIS			R.Thigh.Superior			R.Thigh.Lateral			R.Thigh.Inferior			R.Patella			L.Thigh.Superior			L.Thigh.Lateral			L.Thigh.Inferior			L.Patella			L.Shank.Superior			L.Shank.Lateral			L.Shank.Inferior			R.Shank.Superior			R.Shank.Lateral			R.Shank.Inferior			R.Heel			R.Midfoot.Superior			R.Midfoot.Lateral			R.Toe			L.Heel			L.Midfoot.Lateral			L.Midfoot.Superior			L.Toe			L.Elbow			L.Wrist			R.Elbow			R.Wrist			
		X1	Y1	Z1	X2	Y2	Z2	X3	Y3	Z3	X4	Y4	Z4	X5	Y5	Z5	X6	Y6	Z6	X7	Y7	Z7	X8	Y8	Z8	X9	Y9	Z9	X10	Y10	Z10	X11	Y11	Z11	X12	Y12	Z12	X13	Y13	Z13	X14	Y14	Z14	X15	Y15	Z15	X16	Y16	Z16	X17	Y17	Z17	X18	Y18	Z18	X19	Y19	Z19	X20	Y20	Z20	X21	Y21	Z21	X22	Y22	Z22	X23	Y23	Z23	X24	Y24	Z24	X25	Y25	Z25	X26	Y26	Z26	X27	Y27	Z27	X28	Y28	Z28	X29	Y29	Z29	X30	Y30	Z30	X31	Y31	Z31	X32	Y32	Z32	X33	Y33	Z33	

36	25.057500000000	714.625707789944	1004.314719375560	459.043348190069	944.387335590249	1438.246755609123	350.299569497689	996.364737745137	1356.695455213161	528.433877116550	867.657205066124	1422.443321174764	676.353007749144	889.709148217043	1491.143857512450	503.596390779238	918.757479382036	935.675835941536	619.693663845793	955.689854750608	958.683157729672	348.183639440235	981.510081291659	745.486562922171	588.281129898460	907.393403144453	629.228290959778	641.727927376870	997.407051743886	583.234138285873	569.693101969063	1007.570879404465	492.113380409725	579.012768285377	956.106471219607	726.364240611251	371.552637068703	851.168532577808	626.798559376249	297.083627667297	909.098165203311	533.723577711518	366.464454768934	893.433637617290	459.278436273583	369.146834788261	841.406438762090	400.374474697467	356.727383193226	722.290792411418	321.804515180535	295.929057228804	730.967656142797	196.733734407797	362.027401089889	972.590852285284	403.062329248277	584.995961611495	893.816800711108	304.603797228130	646.218378520327	933.413878367532	205.970375246450	588.440092207827	793.193884238907	45.029177695849	559.613065626220	963.443896007669	96.681642207900	601.804524092317	873.061707907486	38.004825587133	637.933849082800	1081.444843725639	42.230418622578	637.572679094966	561.882139517575	71.312659633155	387.092250417141	641.358840167434	51.821008722834	315.841453402520	731.168316615905	101.056580365242	347.198647046898	849.565805404425	37.085751863735	333.428170338973	1022.875795403231	1109.792526860573	202.890622374666	1274.920249496201	1093.559613761541	251.598722844668	729.153978210795	1092.809058955827	741.993353867785	774.834807069055	838.417735636829	782.423149828026	
37	25.076285714286	714.298678618645	1006.052638387526	465.529171642028	943.677394814263	1439.158408338874	353.365442504945	997.636710503429	1357.875389595680	531.087276510651	870.855182470964	1424.249821650900	680.295889239187	890.752585965187	1492.533386405208	507.010541070820	919.658977640264	936.920889419876	624.209156609535	954.204405326838	959.595632485742	352.564136797541	979.725738088835	745.060895535201	592.350941141050	904.025784281918	629.500991327557	645.266445101749	993.103787208188	582.843977818550	572.638316608088	1002.217722953590	491.923389803327	581.224033941340	956.596842964144	727.873612735164	375.359425459183	852.820066469102	627.643401328520	300.782883742372	912.744375439225	534.518095000360	369.218084505368	897.553865778272	459.125558789262	370.802112753197	843.774924078981	401.053142284800	358.414531628991	722.657929151071	325.425544630571	297.915755086727	729.964023266645	199.210706584580	362.087859162802	967.227706963728	403.161077956606	586.807339181828	888.544474173689	304.418271793219	647.489665623102	928.107569951364	206.065380222030	589.076528528671	787.784927537867	45.130213576709	559.609414964926	958.016585415942	96.633362400493	601.836870542979	867.645518783227	38.042468821075	637.890905304091	1076.031682740069	41.868708789434	637.689814280625	558.419961430820	77.520043218528	386.890078684840	637.135381518873	55.252128322619	315.744457817981	728.436808282933	102.057167958226	346.601051797192	844.287704682040	36.846099908812	333.426148317862	1016.120928184872	1108.303997733752	207.154117678628	1267.669741460651	1077.674066605267	253.454897854841	735.709038387536	1094.233086699081	752.620278574662	787.087215054764	841.656600541978	796.729117076592	
38	25.095071428571	713.801807742518	1007.571238505228	472.032966529147	942.690924804627	1439.836631752596	356.168500420841	998.688881076407	1358.903926566047	533.471386252244	873.950110936041	1426.003610735005	683.981928247856	891.625219454507	1493.752879626164	510.139468714927	920.400884886362	938.021411030105	628.700349378737	952.498820442903	960.330059829919	356.913606792166	977.892856330369	744.617829832179	596.366597722690	900.732231577823	629.699518901185	648.821307710921	988.883486810375	582.437875429511	575.608752385128	996.985663506690	491.685968182883	583.540050601312	957.477602946857	729.395925917769	379.338633689868	855.347727660443	628.228543986430	304.581135021595	917.417234024393	535.261022564718	372.255116880898	902.782233220021	458.834980870946	372.694111571604	847.189610505979	401.570409759049	360.289820347304	724.085391879321	329.184418199696	299.980509758789	729.649076305246	201.921237671250	362.247244508517	961.937458930227	403.215766369187	588.711000681470	883.262131271246	304.225881171329	648.821624457515	922.788521346778	206.148611680031	589.768469308580	782.315618680462	45.231023790629	559.588963636432	952.544695927368	96.586600560126	601.886583481725	862.172169060254	38.079070058020	637.837710094452	1070.548948223464	41.567149031007	637.783042562803	555.439266343962	84.656167755948	386.634118504115	633.203294003372	59.379415650812	315.606311371273	726.068246423059	103.307064869954	346.026353953807	838.965516749643	36.525374012234	333.458235075375	1009.114640808501	1106.681177654877	211.248552028605	1258.993785825465	1060.197656868125	255.001330473032	742.590983514878	1095.633956504433	763.248854702938	799.909758717621	845.090902799965	810.903308356396	
39	25.113857142857	713.121892846333	1008.788806944974	478.562042466641	941.414305443019	1440.190295063702	358.704843324799	999.485992417687	1359.697112499664	535.587434588911	876.895681955001	1427.625522695446	687.396838950913	892.299563570095	1494.720543582335	512.976131214154	920.978780830308	938.910309446298	633.157705169478	950.558619401027	960.819743551959	361.214538885029	976.125811376304	744.156526732842	600.318757409330	897.686035351776	629.782770149923	652.380391188908	984.949604014961	582.003733093923	578.593786517656	992.112218519058	491.355509321088	585.953602020516	958.764663897310	730.901032173758	383.500036350532	858.796857934147	628.525589993098	308.497812649611	923.131913753517	535.953987491983	375.633663357249	909.142580097724	458.417204099748	374.909368073648	851.702413745882	401.910676801276	362.414630578698	726.650012922073	333.093069645665	302.146695182649	730.046030795716	204.912688865720	362.557685072434	956.908553464445	403.173131347448	590.694988574327	878.126495984479	304.006629136729	650.216671535266	917.532597549143	206.184748803243	590.510220359236	776.779723706350	45.339062421278	559.563052509747	947.034115017997	96.548628206490	601.966994049091	856.638697181743	38.118064181128	637.783406325819	1065.001902226597	41.309822247045	637.857286851954	553.005979011434	92.861574453075	386.344236124256	629.611070867848	64.368521878851	315.444197026690	724.061976261725	104.922655267007	345.524518137522	833.575583445793	36.090687815885	333.533216530919	1001.932333561086	1104.824990404626	215.227756877207	1248.688701922413	1041.155669193989	256.250130075113	749.794223683003	1096.907710730621	773.721578976761	813.432125713988	848.666263251961	824.787541024348	
40	25.132642857143	712.242128733903	1009.630386916356	485.113425015285	939.837260237068	1440.134060526112	360.971250071924	1000.004856031168	1360.172070896645	537.434450531803	879.657324966433	1429.031565815144	690.529338987848	892.755876892882	1495.358563509422	515.517639652008	921.390941510233	939.526080871396	637.564645010659	948.370701886009	961.004190456827	365.442725319491	974.531757317562	743.667258969954	604.205026898058	895.040744781204	629.702564830570	655.923301495199	981.490673990938	581.522131695277	581.577979414960	987.817444964921	490.883081598318	588.441172683155	960.456039786633	732.375268512386	387.846190440195	863.180031161787	628.529102945493	312.550238659910	929.869797910899	536.619535888489	379.398343904993	916.627869332242	457.904970717618	377.525705272714	857.331439716498	402.077645166850	364.847439107027	730.394762864205	337.173326382204	304.444758180540	731.159887322796	208.238987651050	363.076367025803	952.316526608635	402.978624332835	592.733462754544	873.285863987095	303.736872340095	651.664095176793	912.415554233078	206.138028137463	591.289108894492	771.183335766950	45.458413412239	559.541841187262	941.496036633430	96.524110206691	602.085631560176	851.052529042079	38.160165965829	637.736379541709	1059.404057573201	41.082883213821	637.919326611822	551.181118950216	102.249038057656	386.063507240388	626.412293175110	70.373379485630	315.291323068650	722.417363017557	107.031355572599	345.154151864400	828.109271785166	35.519686289324	333.659339188373	994.632881433557	1102.633622895697	219.156534480828	1236.555089795903	1020.660123941065	257.219232474754	757.301528021618	1097.957387489798	783.894383741440	827.763961654308	852.349486990326	838.235509673224	
